<?xml version="1.0" encoding="UTF-8"?>
<svg xmlns="http://www.w3.org/2000/svg" xmlns:xlink="http://www.w3.org/1999/xlink" width="30px" height="30px" viewBox="0 0 30 24" version="1.1">
<g id="surface1">
<path style=" stroke:none;fill-rule:nonzero;fill:rgb(0%,0%,0%);fill-opacity:1;" d="M 14.625 1.5 C 14 1.5 13.5 2 13.5 2.625 C 13.5 3.25 14 3.75 14.625 3.75 L 15.828125 3.75 L 17.453125 6.75 L 10.449219 6.75 L 9.164062 4.96875 C 8.953125 4.671875 8.609375 4.5 8.25 4.5 L 5.625 4.5 C 5 4.5 4.5 5 4.5 5.625 C 4.5 6.25 5 6.75 5.625 6.75 L 7.671875 6.75 L 8.710938 8.1875 L 7.460938 10.679688 C 6.992188 10.5625 6.5 10.5 6 10.5 C 2.6875 10.5 0 13.1875 0 16.5 C 0 19.8125 2.6875 22.5 6 22.5 C 9.0625 22.5 11.582031 20.207031 11.953125 17.25 L 14.25 17.25 C 14.648438 17.25 15.015625 17.039062 15.21875 16.695312 L 19.195312 9.96875 L 20.210938 11.851562 C 18.863281 12.953125 18 14.625 18 16.5 C 18 19.8125 20.6875 22.5 24 22.5 C 27.3125 22.5 30 19.8125 30 16.5 C 30 13.1875 27.3125 10.5 24 10.5 C 23.367188 10.5 22.757812 10.597656 22.1875 10.78125 L 17.597656 2.289062 C 17.335938 1.800781 16.828125 1.5 16.273438 1.5 Z M 21.496094 14.234375 L 23.011719 17.035156 C 23.304688 17.582031 23.992188 17.785156 24.535156 17.488281 C 25.078125 17.195312 25.285156 16.507812 24.988281 15.964844 L 23.476562 13.167969 C 23.644531 13.140625 23.820312 13.125 24 13.125 C 25.867188 13.125 27.375 14.632812 27.375 16.5 C 27.375 18.367188 25.867188 19.875 24 19.875 C 22.132812 19.875 20.625 18.367188 20.625 16.5 C 20.625 15.628906 20.953125 14.835938 21.496094 14.234375 Z M 6.242188 17.25 L 9.289062 17.25 C 8.949219 18.753906 7.601562 19.875 6 19.875 C 4.132812 19.875 2.625 18.367188 2.625 16.5 C 2.625 14.632812 4.132812 13.125 6 13.125 C 6.078125 13.125 6.160156 13.128906 6.238281 13.132812 L 5.105469 15.40625 C 4.683594 16.257812 5.296875 17.253906 6.242188 17.253906 Z M 7.824219 15 L 10.199219 10.25 L 13.617188 14.996094 L 13.613281 15 L 7.820312 15 Z M 12.070312 9 L 17.152344 9 L 14.859375 12.882812 L 12.066406 9 Z M 12.070312 9 "/>
</g>
</svg>
