<?xml version="1.0" encoding="UTF-8"?>
<svg xmlns="http://www.w3.org/2000/svg" xmlns:xlink="http://www.w3.org/1999/xlink" width="34px" height="30px" viewBox="0 0 33 30" version="1.1">
<g id="surface1">
<path style=" stroke:none;fill-rule:nonzero;fill:rgb(0%,0%,0%);fill-opacity:1;" d="M 19.105469 11.800781 C 19.105469 10.507812 18.214844 9.789062 16.644531 9.789062 L 13.753906 9.789062 L 13.753906 13.964844 L 16.191406 13.964844 C 18.070312 13.953125 19.105469 13.183594 19.105469 11.800781 Z M 29.621094 11.050781 C 29.074219 9.238281 28.996094 7.023438 29.054688 5.304688 C 29.125 3.515625 27.757812 1.875 25.925781 1.875 L 7.085938 1.875 C 5.246094 1.875 3.890625 3.519531 3.953125 5.304688 C 4.011719 7.023438 3.933594 9.238281 3.390625 11.050781 C 2.839844 12.867188 1.917969 14.015625 0.402344 14.160156 L 0.402344 15.828125 C 1.914062 15.976562 2.839844 17.128906 3.390625 18.945312 C 3.933594 20.75 4.015625 22.972656 3.953125 24.691406 C 3.890625 26.480469 5.25 28.121094 7.085938 28.121094 L 25.917969 28.121094 C 27.757812 28.121094 29.113281 26.476562 29.050781 24.691406 C 28.996094 22.972656 29.070312 20.75 29.613281 18.945312 C 30.164062 17.128906 31.085938 15.976562 32.597656 15.828125 L 32.597656 14.160156 C 31.089844 14.015625 30.164062 12.867188 29.621094 11.050781 Z M 17.195312 21.976562 L 11.59375 21.976562 L 11.59375 8.015625 L 17.167969 8.015625 C 19.652344 8.015625 21.277344 9.382812 21.277344 11.492188 C 21.277344 12.976562 20.1875 14.300781 18.785156 14.53125 L 18.785156 14.609375 C 20.6875 14.820312 21.964844 16.167969 21.964844 18.023438 C 21.964844 20.488281 20.171875 21.976562 17.195312 21.976562 Z M 16.625 15.609375 L 13.753906 15.609375 L 13.753906 20.203125 L 16.753906 20.203125 C 18.710938 20.203125 19.746094 19.398438 19.746094 17.890625 C 19.746094 16.382812 18.683594 15.609375 16.625 15.609375 Z M 16.625 15.609375 "/>
</g>
</svg>
