<?xml version="1.0" encoding="UTF-8"?>
<svg xmlns="http://www.w3.org/2000/svg" xmlns:xlink="http://www.w3.org/1999/xlink" width="30px" height="30px" viewBox="0 0 30 26" version="1.1">
<g id="surface1">
<path style=" stroke:none;fill-rule:nonzero;fill:rgb(0%,0%,0%);fill-opacity:1;" d="M 3.332031 0 C 1.496094 0 0 1.457031 0 3.25 L 0 17.875 C 0 19.667969 1.496094 21.125 3.332031 21.125 L 12.5 21.125 L 11.941406 22.75 L 8.332031 22.75 C 7.410156 22.75 6.667969 23.476562 6.667969 24.375 C 6.667969 25.273438 7.410156 26 8.332031 26 L 21.667969 26 C 22.589844 26 23.332031 25.273438 23.332031 24.375 C 23.332031 23.476562 22.589844 22.75 21.667969 22.75 L 18.058594 22.75 L 17.5 21.125 L 26.667969 21.125 C 28.503906 21.125 30 19.667969 30 17.875 L 30 3.25 C 30 1.457031 28.503906 0 26.667969 0 Z M 26.667969 3.25 L 26.667969 14.625 L 3.332031 14.625 L 3.332031 3.25 Z M 26.667969 3.25 "/>
</g>
</svg>
