<?xml version="1.0" encoding="UTF-8"?>
<svg xmlns="http://www.w3.org/2000/svg" xmlns:xlink="http://www.w3.org/1999/xlink" width="30px" height="30px" viewBox="0 0 30 24" version="1.1">
<g id="surface1">
<path style=" stroke:none;fill-rule:nonzero;fill:rgb(0%,0%,0%);fill-opacity:1;" d="M 4.5 3 C 4.5 2.171875 5.171875 1.5 6 1.5 L 7.5 1.5 C 8.328125 1.5 9 2.171875 9 3 L 9 21 C 9 21.828125 8.328125 22.5 7.5 22.5 L 6 22.5 C 5.171875 22.5 4.5 21.828125 4.5 21 L 4.5 18 L 3 18 C 2.171875 18 1.5 17.328125 1.5 16.5 L 1.5 13.5 C 0.671875 13.5 0 12.828125 0 12 C 0 11.171875 0.671875 10.5 1.5 10.5 L 1.5 7.5 C 1.5 6.671875 2.171875 6 3 6 L 4.5 6 Z M 25.5 3 L 25.5 6 L 27 6 C 27.828125 6 28.5 6.671875 28.5 7.5 L 28.5 10.5 C 29.328125 10.5 30 11.171875 30 12 C 30 12.828125 29.328125 13.5 28.5 13.5 L 28.5 16.5 C 28.5 17.328125 27.828125 18 27 18 L 25.5 18 L 25.5 21 C 25.5 21.828125 24.828125 22.5 24 22.5 L 22.5 22.5 C 21.671875 22.5 21 21.828125 21 21 L 21 3 C 21 2.171875 21.671875 1.5 22.5 1.5 L 24 1.5 C 24.828125 1.5 25.5 2.171875 25.5 3 Z M 19.5 10.5 L 19.5 13.5 L 10.5 13.5 L 10.5 10.5 Z M 19.5 10.5 "/>
</g>
</svg>
