<?xml version="1.0" encoding="UTF-8"?>
<svg xmlns="http://www.w3.org/2000/svg" xmlns:xlink="http://www.w3.org/1999/xlink" width="30px" height="30px" viewBox="0 0 30 24" version="1.1">
<g id="surface1">
<path style=" stroke:none;fill-rule:nonzero;fill:rgb(0%,0%,0%);fill-opacity:1;" d="M 9 3 C 4.03125 3 0 7.03125 0 12 C 0 16.96875 4.03125 21 9 21 L 21 21 C 25.96875 21 30 16.96875 30 12 C 30 7.03125 25.96875 3 21 3 Z M 23.25 7.875 C 24.285156 7.875 25.125 8.714844 25.125 9.75 C 25.125 10.785156 24.285156 11.625 23.25 11.625 C 22.214844 11.625 21.375 10.785156 21.375 9.75 C 21.375 8.714844 22.214844 7.875 23.25 7.875 Z M 18.375 14.25 C 18.375 13.214844 19.214844 12.375 20.25 12.375 C 21.285156 12.375 22.125 13.214844 22.125 14.25 C 22.125 15.285156 21.285156 16.125 20.25 16.125 C 19.214844 16.125 18.375 15.285156 18.375 14.25 Z M 7.875 9.375 C 7.875 8.75 8.375 8.25 9 8.25 C 9.625 8.25 10.125 8.75 10.125 9.375 L 10.125 10.875 L 11.625 10.875 C 12.25 10.875 12.75 11.375 12.75 12 C 12.75 12.625 12.25 13.125 11.625 13.125 L 10.125 13.125 L 10.125 14.625 C 10.125 15.25 9.625 15.75 9 15.75 C 8.375 15.75 7.875 15.25 7.875 14.625 L 7.875 13.125 L 6.375 13.125 C 5.75 13.125 5.25 12.625 5.25 12 C 5.25 11.375 5.75 10.875 6.375 10.875 L 7.875 10.875 Z M 7.875 9.375 "/>
</g>
</svg>
