<?xml version="1.0" encoding="UTF-8"?>
<svg xmlns="http://www.w3.org/2000/svg" xmlns:xlink="http://www.w3.org/1999/xlink" width="30px" height="30px" viewBox="0 0 30 30" version="1.1">
<g id="surface1">
<path style=" stroke:none;fill-rule:nonzero;fill:rgb(0%,0%,0%);fill-opacity:1;" d="M 15 4.6875 C 8.78125 4.6875 3.65625 9.339844 2.90625 15.351562 C 3.457031 15.128906 4.054688 15 4.6875 15 C 6.242188 15 7.5 16.257812 7.5 17.8125 L 7.5 25.3125 C 7.5 26.867188 6.242188 28.125 4.6875 28.125 C 2.097656 28.125 0 26.027344 0 23.4375 L 0 16.875 C 0 8.589844 6.714844 1.875 15 1.875 C 23.285156 1.875 30 8.589844 30 16.875 L 30 23.4375 C 30 26.027344 27.902344 28.125 25.3125 28.125 C 23.757812 28.125 22.5 26.867188 22.5 25.3125 L 22.5 17.8125 C 22.5 16.257812 23.757812 15 25.3125 15 C 25.945312 15 26.542969 15.125 27.09375 15.351562 C 26.34375 9.339844 21.21875 4.6875 15 4.6875 Z M 15 4.6875 "/>
</g>
</svg>
