<?xml version="1.0" encoding="UTF-8"?>
<svg xmlns="http://www.w3.org/2000/svg" xmlns:xlink="http://www.w3.org/1999/xlink" width="26px" height="30px" viewBox="0 0 26 29" version="1.1">
<g id="surface1">
<path style=" stroke:none;fill-rule:nonzero;fill:rgb(0%,0%,0%);fill-opacity:1;" d="M 0 1.8125 L 0 27.1875 L 26 27.1875 L 26 1.8125 Z M 14.148438 21.601562 C 14.148438 24.070312 12.664062 25.199219 10.5 25.199219 C 8.542969 25.199219 7.410156 24.214844 6.832031 23.019531 L 8.820312 21.847656 C 9.203125 22.507812 9.550781 23.070312 10.394531 23.070312 C 11.195312 23.070312 11.707031 22.765625 11.707031 21.570312 L 11.707031 13.464844 L 14.148438 13.464844 Z M 19.929688 25.199219 C 17.660156 25.199219 16.191406 24.144531 15.476562 22.765625 L 17.46875 21.640625 C 17.992188 22.476562 18.675781 23.09375 19.878906 23.09375 C 20.886719 23.09375 21.535156 22.601562 21.535156 21.914062 C 21.535156 21.097656 20.875 20.808594 19.753906 20.328125 L 19.144531 20.074219 C 17.382812 19.34375 16.214844 18.417969 16.214844 16.476562 C 16.214844 14.6875 17.613281 13.328125 19.789062 13.328125 C 21.34375 13.328125 22.460938 13.855469 23.261719 15.234375 L 21.355469 16.425781 C 20.9375 15.695312 20.488281 15.40625 19.785156 15.40625 C 19.070312 15.40625 18.617188 15.847656 18.617188 16.425781 C 18.617188 17.140625 19.070312 17.429688 20.121094 17.875 L 20.730469 18.128906 C 22.808594 18.996094 23.972656 19.886719 23.972656 21.878906 C 23.972656 24.019531 22.246094 25.199219 19.929688 25.199219 Z M 19.929688 25.199219 "/>
</g>
</svg>
