<?xml version="1.0" encoding="UTF-8"?>
<svg xmlns="http://www.w3.org/2000/svg" xmlns:xlink="http://www.w3.org/1999/xlink" width="30px" height="30px" viewBox="0 0 30 34" version="1.1">
<g id="surface1">
<path style=" stroke:none;fill-rule:nonzero;fill:rgb(0%,0%,0%);fill-opacity:1;" d="M 15 33.734375 C 14.550781 33.734375 14.097656 33.613281 13.699219 33.390625 L 9.570312 30.964844 C 8.953125 30.621094 9.253906 30.5 9.457031 30.433594 C 10.277344 30.148438 10.445312 30.089844 11.324219 29.589844 C 11.417969 29.539062 11.539062 29.558594 11.632812 29.617188 L 14.804688 31.484375 C 14.917969 31.550781 15.082031 31.550781 15.1875 31.484375 L 27.554688 24.40625 C 27.667969 24.335938 27.742188 24.203125 27.742188 24.070312 L 27.742188 9.914062 C 27.742188 9.773438 27.667969 9.648438 27.550781 9.574219 L 15.1875 2.503906 C 15.074219 2.4375 14.917969 2.4375 14.804688 2.503906 L 2.449219 9.582031 C 2.332031 9.648438 2.257812 9.78125 2.257812 9.921875 L 2.257812 24.070312 C 2.257812 24.203125 2.332031 24.335938 2.449219 24.398438 L 5.839844 26.335938 C 7.679688 27.246094 8.804688 26.175781 8.804688 25.09375 L 8.804688 11.125 C 8.804688 10.921875 8.964844 10.769531 9.167969 10.769531 L 10.734375 10.769531 C 10.929688 10.769531 11.097656 10.921875 11.097656 11.125 L 11.097656 25.101562 C 11.097656 27.53125 9.757812 28.925781 7.433594 28.925781 C 6.714844 28.925781 6.152344 28.925781 4.585938 28.15625 L 1.347656 26.304688 C 0.542969 25.84375 0.046875 24.988281 0.046875 24.066406 L 0.046875 9.914062 C 0.046875 9 0.542969 8.136719 1.347656 7.675781 L 13.699219 0.597656 C 14.484375 0.160156 15.523438 0.160156 16.300781 0.597656 L 28.667969 7.683594 C 29.472656 8.140625 29.964844 9 29.964844 9.921875 L 29.964844 24.070312 C 29.964844 24.988281 29.472656 25.84375 28.667969 26.308594 L 16.300781 33.390625 C 15.902344 33.613281 15.457031 33.734375 15 33.734375 Z M 24.984375 19.78125 C 24.984375 17.132812 23.175781 16.429688 19.378906 15.929688 C 15.535156 15.425781 15.148438 15.167969 15.148438 14.277344 C 15.148438 13.539062 15.476562 12.558594 18.320312 12.558594 C 20.859375 12.558594 21.796875 13.101562 22.183594 14.800781 C 22.21875 14.960938 22.367188 15.082031 22.535156 15.082031 L 24.140625 15.082031 C 24.242188 15.082031 24.335938 15.039062 24.402344 14.96875 C 24.46875 14.894531 24.503906 14.796875 24.496094 14.695312 C 24.246094 11.765625 22.285156 10.40625 18.320312 10.40625 C 14.792969 10.40625 12.691406 11.878906 12.691406 14.355469 C 12.691406 17.039062 14.785156 17.785156 18.167969 18.117188 C 22.21875 18.507812 22.535156 19.097656 22.535156 19.890625 C 22.535156 21.257812 21.421875 21.839844 18.816406 21.839844 C 15.542969 21.839844 14.824219 21.023438 14.585938 19.410156 C 14.558594 19.238281 14.410156 19.113281 14.230469 19.113281 L 12.628906 19.113281 C 12.429688 19.113281 12.273438 19.269531 12.273438 19.464844 C 12.273438 21.527344 13.40625 23.992188 18.824219 23.992188 C 22.734375 23.984375 24.984375 22.453125 24.984375 19.78125 Z M 24.984375 19.78125 "/>
</g>
</svg>
