<?xml version="1.0" encoding="UTF-8"?>
<svg xmlns="http://www.w3.org/2000/svg" xmlns:xlink="http://www.w3.org/1999/xlink" width="30px" height="30px" viewBox="0 0 30 30" version="1.1">
<g id="surface1">
<path style=" stroke:none;fill-rule:nonzero;fill:rgb(0%,0%,0%);fill-opacity:1;" d="M 24.503906 10.382812 C 24.1875 10.277344 23.871094 10.179688 23.554688 10.085938 C 23.609375 9.867188 23.65625 9.648438 23.703125 9.433594 C 24.421875 5.941406 23.945312 3.132812 22.347656 2.210938 C 20.804688 1.324219 18.292969 2.246094 15.75 4.460938 C 15.496094 4.675781 15.25 4.902344 15.015625 5.132812 C 14.859375 4.980469 14.695312 4.828125 14.53125 4.679688 C 11.863281 2.3125 9.191406 1.316406 7.59375 2.25 C 6.058594 3.140625 5.601562 5.78125 6.246094 9.085938 C 6.308594 9.414062 6.378906 9.738281 6.460938 10.066406 C 6.085938 10.171875 5.71875 10.289062 5.371094 10.414062 C 2.242188 11.496094 0 13.207031 0 14.976562 C 0 16.804688 2.390625 18.640625 5.640625 19.75 C 5.90625 19.839844 6.171875 19.929688 6.4375 20.003906 C 6.351562 20.355469 6.273438 20.703125 6.203125 21.058594 C 5.589844 24.3125 6.070312 26.890625 7.605469 27.773438 C 9.1875 28.6875 11.847656 27.75 14.4375 25.484375 C 14.640625 25.300781 14.847656 25.113281 15.050781 24.914062 C 15.308594 25.164062 15.578125 25.40625 15.851562 25.640625 C 18.359375 27.796875 20.835938 28.667969 22.367188 27.785156 C 23.945312 26.871094 24.460938 24.101562 23.792969 20.726562 C 23.742188 20.46875 23.683594 20.203125 23.617188 19.933594 C 23.804688 19.882812 23.988281 19.820312 24.167969 19.765625 C 27.550781 18.644531 30 16.835938 30 14.976562 C 30 13.203125 27.691406 11.480469 24.503906 10.382812 Z M 16.578125 5.40625 C 18.753906 3.507812 20.789062 2.765625 21.714844 3.296875 C 22.703125 3.867188 23.085938 6.164062 22.464844 9.179688 C 22.421875 9.382812 22.382812 9.574219 22.328125 9.765625 C 21.03125 9.476562 19.710938 9.265625 18.386719 9.148438 C 17.625 8.054688 16.792969 7.011719 15.890625 6.035156 C 16.117188 5.820312 16.339844 5.613281 16.574219 5.40625 Z M 9.796875 18.015625 C 10.09375 18.527344 10.398438 19.039062 10.722656 19.535156 C 9.808594 19.4375 8.898438 19.289062 8.003906 19.09375 C 8.261719 18.25 8.585938 17.378906 8.960938 16.488281 C 9.226562 17.003906 9.503906 17.515625 9.796875 18.015625 Z M 8.019531 10.96875 C 8.863281 10.78125 9.761719 10.628906 10.691406 10.511719 C 10.382812 11 10.078125 11.496094 9.789062 12 C 9.503906 12.496094 9.222656 13.007812 8.957031 13.523438 C 8.589844 12.648438 8.277344 11.792969 8.019531 10.96875 Z M 9.625 15.007812 C 10.011719 14.195312 10.4375 13.40625 10.882812 12.628906 C 11.324219 11.847656 11.804688 11.09375 12.3125 10.347656 C 13.1875 10.285156 14.085938 10.25 15 10.25 C 15.914062 10.25 16.816406 10.285156 17.6875 10.347656 C 18.1875 11.085938 18.664062 11.84375 19.113281 12.617188 C 19.5625 13.390625 19.984375 14.179688 20.382812 14.984375 C 19.992188 15.789062 19.570312 16.585938 19.117188 17.375 C 18.671875 18.152344 18.199219 18.90625 17.699219 19.65625 C 16.828125 19.722656 15.921875 19.75 15 19.75 C 14.078125 19.75 13.1875 19.722656 12.328125 19.671875 C 11.820312 18.925781 11.335938 18.164062 10.886719 17.386719 C 10.4375 16.605469 10.019531 15.816406 9.625 15.007812 Z M 20.210938 18.007812 C 20.507812 17.492188 20.789062 16.96875 21.0625 16.441406 C 21.4375 17.289062 21.765625 18.152344 22.054688 19.039062 C 21.148438 19.242188 20.226562 19.398438 19.300781 19.507812 C 19.617188 19.015625 19.914062 18.511719 20.210938 18.007812 Z M 21.050781 13.523438 C 20.777344 13.007812 20.496094 12.492188 20.203125 11.988281 C 19.914062 11.492188 19.617188 11 19.304688 10.511719 C 20.25 10.628906 21.152344 10.789062 21.996094 10.980469 C 21.726562 11.847656 21.410156 12.691406 21.050781 13.523438 Z M 15.011719 6.929688 C 15.625 7.597656 16.207031 8.304688 16.746094 9.03125 C 15.585938 8.976562 14.421875 8.976562 13.257812 9.03125 C 13.835938 8.273438 14.425781 7.570312 15.011719 6.929688 Z M 8.214844 3.339844 C 9.199219 2.765625 11.382812 3.585938 13.6875 5.625 C 13.835938 5.753906 13.980469 5.894531 14.132812 6.035156 C 13.226562 7.015625 12.386719 8.054688 11.617188 9.148438 C 10.296875 9.265625 8.980469 9.46875 7.679688 9.757812 C 7.605469 9.457031 7.539062 9.152344 7.476562 8.847656 C 6.925781 6.011719 7.289062 3.871094 8.214844 3.339844 Z M 6.777344 18.785156 C 6.53125 18.714844 6.292969 18.640625 6.050781 18.558594 C 4.804688 18.164062 3.386719 17.542969 2.359375 16.730469 C 1.769531 16.320312 1.371094 15.6875 1.257812 14.976562 C 1.257812 13.90625 3.109375 12.535156 5.78125 11.601562 C 6.117188 11.484375 6.457031 11.378906 6.796875 11.28125 C 7.195312 12.550781 7.675781 13.800781 8.234375 15.007812 C 7.671875 16.230469 7.183594 17.496094 6.78125 18.785156 Z M 13.609375 24.527344 C 12.644531 25.414062 11.523438 26.117188 10.304688 26.597656 C 9.65625 26.90625 8.90625 26.9375 8.238281 26.671875 C 7.304688 26.132812 6.917969 24.066406 7.445312 21.28125 C 7.511719 20.953125 7.582031 20.625 7.664062 20.304688 C 8.976562 20.585938 10.300781 20.777344 11.640625 20.878906 C 12.414062 21.972656 13.265625 23.023438 14.171875 24.007812 C 13.984375 24.1875 13.796875 24.363281 13.609375 24.527344 Z M 15.046875 23.101562 C 14.449219 22.460938 13.851562 21.742188 13.269531 20.976562 C 13.832031 21 14.414062 21.011719 15 21.011719 C 15.601562 21.011719 16.195312 21 16.78125 20.972656 C 16.242188 21.714844 15.660156 22.425781 15.046875 23.101562 Z M 22.703125 24.859375 C 22.652344 25.578125 22.300781 26.246094 21.738281 26.695312 C 20.804688 27.234375 18.820312 26.53125 16.675781 24.691406 C 16.429688 24.480469 16.183594 24.253906 15.929688 24.019531 C 16.828125 23.027344 17.652344 21.976562 18.402344 20.875 C 19.746094 20.765625 21.082031 20.5625 22.398438 20.261719 C 22.457031 20.503906 22.511719 20.742188 22.558594 20.976562 C 22.84375 22.242188 22.890625 23.5625 22.703125 24.859375 Z M 23.769531 18.5625 C 23.605469 18.617188 23.441406 18.667969 23.273438 18.714844 C 22.863281 17.4375 22.359375 16.1875 21.777344 14.976562 C 22.339844 13.78125 22.816406 12.550781 23.214844 11.292969 C 23.519531 11.378906 23.8125 11.472656 24.09375 11.566406 C 26.824219 12.503906 28.738281 13.898438 28.738281 14.964844 C 28.738281 16.113281 26.695312 17.59375 23.769531 18.5625 Z M 15 17.683594 C 16.480469 17.683594 17.683594 16.484375 17.683594 15 C 17.683594 13.515625 16.480469 12.316406 15 12.316406 C 13.515625 12.316406 12.316406 13.515625 12.316406 15 C 12.316406 16.484375 13.515625 17.683594 15 17.683594 Z M 15 17.683594 "/>
</g>
</svg>
