<?xml version="1.0" encoding="UTF-8"?>
<svg xmlns="http://www.w3.org/2000/svg" xmlns:xlink="http://www.w3.org/1999/xlink" width="30px" height="30px" viewBox="0 0 30 34" version="1.1">
<g id="surface1">
<path style=" stroke:none;fill-rule:nonzero;fill:rgb(0%,0%,0%);fill-opacity:1;" d="M 27.855469 0 C 26.785156 0 19.285156 2.125 19.285156 11.6875 L 19.285156 19.125 C 19.285156 21.46875 21.207031 23.375 23.570312 23.375 L 25.714844 23.375 L 25.714844 31.875 C 25.714844 33.050781 26.671875 34 27.855469 34 C 29.042969 34 30 33.050781 30 31.875 L 30 2.125 C 30 0.949219 29.042969 0 27.855469 0 Z M 4.285156 1.0625 C 4.285156 0.519531 3.878906 0.0664062 3.328125 0.0078125 C 2.777344 -0.0546875 2.289062 0.304688 2.167969 0.828125 L 0.140625 9.882812 C 0.046875 10.300781 0 10.726562 0 11.148438 C 0 14.199219 2.351562 16.703125 5.355469 16.972656 L 5.355469 31.875 C 5.355469 33.050781 6.316406 34 7.5 34 C 8.683594 34 9.644531 33.050781 9.644531 31.875 L 9.644531 16.972656 C 12.648438 16.703125 15 14.199219 15 11.148438 C 15 10.722656 14.953125 10.300781 14.859375 9.882812 L 12.832031 0.828125 C 12.710938 0.296875 12.207031 -0.0546875 11.664062 0.0078125 C 11.121094 0.0664062 10.714844 0.519531 10.714844 1.0625 L 10.714844 9.972656 C 10.714844 10.332031 10.417969 10.625 10.058594 10.625 C 9.714844 10.625 9.433594 10.367188 9.402344 10.027344 L 8.566406 0.96875 C 8.519531 0.417969 8.054688 0 7.5 0 C 6.945312 0 6.480469 0.417969 6.433594 0.96875 L 5.605469 10.027344 C 5.570312 10.367188 5.289062 10.625 4.949219 10.625 C 4.585938 10.625 4.292969 10.332031 4.292969 9.972656 L 4.292969 1.0625 Z M 7.519531 11.15625 L 7.480469 11.15625 L 7.5 11.109375 Z M 7.519531 11.15625 "/>
</g>
</svg>
